<svg xmlns="http://www.w3.org/2000/svg" viewBox="0 0 128 128" fill="none">
  <rect width="128" height="128" rx="32" fill="#f6eee8"/>
  <g fill="#9b281c">
    <path d="M64 12C58 21 55 30 56 41C59 38 62 37 64 37C66 37 69 38 72 41C73 30 70 21 64 12Z"/>
    <path d="M39 22C34 30 32 38 34 47C37 44 42 42 47 42C47 35 44 28 39 22Z"/>
    <path d="M89 22C94 30 96 38 94 47C91 44 86 42 81 42C81 35 84 28 89 22Z"/>
    <path d="M22 38C15 42 11 48 10 54C18 53 26 55 35 59C37 50 33 43 22 38Z"/>
    <path d="M106 38C113 42 117 48 118 54C110 53 102 55 93 59C91 50 95 43 106 38Z"/>
    <path d="M11 66C4 70 1 76 1 84C10 82 18 84 27 89C29 80 24 72 11 66Z"/>
    <path d="M117 66C124 70 127 76 127 84C118 82 110 84 101 89C99 80 104 72 117 66Z"/>
    <path d="M37 37C46 25 55 20 64 20C73 20 82 25 91 37C83 38 75 42 64 51C53 42 45 38 37 37Z"/>
    <path d="M24 52C36 40 49 35 64 35C79 35 92 40 104 52C92 53 80 60 64 73C48 60 36 53 24 52Z"/>
    <path d="M18 84C31 69 46 63 64 63C82 63 97 69 110 84C96 84 80 91 64 105C48 91 32 84 18 84Z"/>
  </g>
  <g stroke="#f6eee8" stroke-width="3.4" stroke-linecap="round" stroke-linejoin="round">
    <path d="M44 42C52 41 59 44 64 51"/>
    <path d="M84 42C76 41 69 44 64 51"/>
    <path d="M30 58C42 55 53 60 64 72"/>
    <path d="M98 58C86 55 75 60 64 72"/>
    <path d="M22 87C35 84 49 90 64 105"/>
    <path d="M106 87C93 84 79 90 64 105"/>
  </g>
  <path d="M64.5 18V110" stroke="#9b281c" stroke-width="2.6" stroke-linecap="round"/>
  <path d="M65 30C70 30 74 34 74 40V65C69 61 66.5 56 65 50V30Z" fill="#f6eee8"/>
  <path d="M58 34C58 31 60 29 63 29H66.5V58H58V34Z" fill="#f6eee8"/>
  <path d="M68 38H75" stroke="#9b281c" stroke-width="2.4" stroke-linecap="round"/>
</svg>
